<mxfile host="Electron" agent="Mozilla/5.0 (Windows NT 10.0; Win64; x64) AppleWebKit/537.36 (KHTML, like Gecko) draw.io/26.2.2 Chrome/134.0.6998.178 Electron/35.1.2 Safari/537.36" version="26.2.2">
  <diagram name="Page-1" id="-znicUmSZydc2KC38OyJ">
    <mxGraphModel dx="2530" dy="2089" grid="1" gridSize="10" guides="1" tooltips="1" connect="1" arrows="1" fold="1" page="1" pageScale="1" pageWidth="850" pageHeight="1100" math="0" shadow="0">
      <root>
        <mxCell id="0" />
        <mxCell id="1" parent="0" />
        <mxCell id="RxotbF4VRwW70MIJQykr-10" style="edgeStyle=orthogonalEdgeStyle;rounded=0;orthogonalLoop=1;jettySize=auto;html=1;entryX=0.5;entryY=0;entryDx=0;entryDy=0;" parent="1" source="RxotbF4VRwW70MIJQykr-1" target="RxotbF4VRwW70MIJQykr-2" edge="1">
          <mxGeometry relative="1" as="geometry" />
        </mxCell>
        <mxCell id="RxotbF4VRwW70MIJQykr-19" value="" style="edgeStyle=orthogonalEdgeStyle;rounded=0;orthogonalLoop=1;jettySize=auto;html=1;" parent="1" source="RxotbF4VRwW70MIJQykr-1" target="RxotbF4VRwW70MIJQykr-18" edge="1">
          <mxGeometry relative="1" as="geometry" />
        </mxCell>
        <mxCell id="RxotbF4VRwW70MIJQykr-21" value="" style="edgeStyle=orthogonalEdgeStyle;rounded=0;orthogonalLoop=1;jettySize=auto;html=1;" parent="1" source="RxotbF4VRwW70MIJQykr-1" target="RxotbF4VRwW70MIJQykr-20" edge="1">
          <mxGeometry relative="1" as="geometry" />
        </mxCell>
        <mxCell id="RxotbF4VRwW70MIJQykr-1" value="Start" style="ellipse;whiteSpace=wrap;html=1;" parent="1" vertex="1">
          <mxGeometry x="330" y="10" width="120" height="70" as="geometry" />
        </mxCell>
        <mxCell id="RxotbF4VRwW70MIJQykr-6" value="" style="edgeStyle=orthogonalEdgeStyle;rounded=0;orthogonalLoop=1;jettySize=auto;html=1;" parent="1" source="RxotbF4VRwW70MIJQykr-2" target="RxotbF4VRwW70MIJQykr-5" edge="1">
          <mxGeometry relative="1" as="geometry" />
        </mxCell>
        <mxCell id="TgoKjytJ8Vac0LaPC_0v-25" style="edgeStyle=orthogonalEdgeStyle;rounded=0;orthogonalLoop=1;jettySize=auto;html=1;exitX=1;exitY=0.5;exitDx=0;exitDy=0;entryX=0.5;entryY=0;entryDx=0;entryDy=0;" edge="1" parent="1" source="RxotbF4VRwW70MIJQykr-2" target="RxotbF4VRwW70MIJQykr-11">
          <mxGeometry relative="1" as="geometry" />
        </mxCell>
        <mxCell id="RxotbF4VRwW70MIJQykr-2" value="Welcome&lt;div&gt;Page&lt;/div&gt;" style="rounded=0;whiteSpace=wrap;html=1;" parent="1" vertex="1">
          <mxGeometry x="350" y="170" width="120" height="60" as="geometry" />
        </mxCell>
        <mxCell id="RxotbF4VRwW70MIJQykr-30" style="edgeStyle=orthogonalEdgeStyle;rounded=0;orthogonalLoop=1;jettySize=auto;html=1;exitX=0.5;exitY=1;exitDx=0;exitDy=0;entryX=0.5;entryY=0;entryDx=0;entryDy=0;" parent="1" source="RxotbF4VRwW70MIJQykr-5" target="RxotbF4VRwW70MIJQykr-29" edge="1">
          <mxGeometry relative="1" as="geometry" />
        </mxCell>
        <mxCell id="RxotbF4VRwW70MIJQykr-5" value="Login&lt;div&gt;Page&lt;/div&gt;" style="rounded=0;whiteSpace=wrap;html=1;" parent="1" vertex="1">
          <mxGeometry x="160" y="300" width="120" height="60" as="geometry" />
        </mxCell>
        <mxCell id="RxotbF4VRwW70MIJQykr-9" style="edgeStyle=orthogonalEdgeStyle;rounded=0;orthogonalLoop=1;jettySize=auto;html=1;exitX=1;exitY=0.5;exitDx=0;exitDy=0;" parent="1" source="RxotbF4VRwW70MIJQykr-7" edge="1">
          <mxGeometry relative="1" as="geometry">
            <mxPoint x="350" y="180" as="targetPoint" />
            <mxPoint x="250" y="90" as="sourcePoint" />
            <Array as="points">
              <mxPoint x="350" y="180" />
            </Array>
          </mxGeometry>
        </mxCell>
        <mxCell id="RxotbF4VRwW70MIJQykr-7" value="Back" style="rounded=0;whiteSpace=wrap;html=1;" parent="1" vertex="1">
          <mxGeometry x="90" y="170" width="110" height="40" as="geometry" />
        </mxCell>
        <mxCell id="RxotbF4VRwW70MIJQykr-36" style="edgeStyle=orthogonalEdgeStyle;rounded=0;orthogonalLoop=1;jettySize=auto;html=1;exitX=0.5;exitY=1;exitDx=0;exitDy=0;" parent="1" source="RxotbF4VRwW70MIJQykr-11" target="RxotbF4VRwW70MIJQykr-35" edge="1">
          <mxGeometry relative="1" as="geometry" />
        </mxCell>
        <mxCell id="TgoKjytJ8Vac0LaPC_0v-3" value="" style="edgeStyle=orthogonalEdgeStyle;rounded=0;orthogonalLoop=1;jettySize=auto;html=1;" edge="1" parent="1" source="RxotbF4VRwW70MIJQykr-11" target="RxotbF4VRwW70MIJQykr-13">
          <mxGeometry relative="1" as="geometry" />
        </mxCell>
        <mxCell id="RxotbF4VRwW70MIJQykr-11" value="Register&lt;div&gt;Page&lt;/div&gt;" style="whiteSpace=wrap;html=1;rounded=0;" parent="1" vertex="1">
          <mxGeometry x="480" y="230" width="120" height="60" as="geometry" />
        </mxCell>
        <mxCell id="RxotbF4VRwW70MIJQykr-13" value="Back" style="whiteSpace=wrap;html=1;rounded=0;" parent="1" vertex="1">
          <mxGeometry x="310" y="260" width="90" height="40" as="geometry" />
        </mxCell>
        <mxCell id="RxotbF4VRwW70MIJQykr-16" style="edgeStyle=orthogonalEdgeStyle;rounded=0;orthogonalLoop=1;jettySize=auto;html=1;exitX=0;exitY=0.5;exitDx=0;exitDy=0;" parent="1" source="RxotbF4VRwW70MIJQykr-5" edge="1">
          <mxGeometry relative="1" as="geometry">
            <mxPoint x="125" y="210" as="targetPoint" />
          </mxGeometry>
        </mxCell>
        <mxCell id="RxotbF4VRwW70MIJQykr-25" value="" style="edgeStyle=orthogonalEdgeStyle;rounded=0;orthogonalLoop=1;jettySize=auto;html=1;" parent="1" source="RxotbF4VRwW70MIJQykr-18" target="RxotbF4VRwW70MIJQykr-24" edge="1">
          <mxGeometry relative="1" as="geometry">
            <Array as="points">
              <mxPoint x="140" y="80" />
              <mxPoint x="290" y="80" />
            </Array>
          </mxGeometry>
        </mxCell>
        <mxCell id="RxotbF4VRwW70MIJQykr-18" value="Gallery&lt;div&gt;Page&lt;/div&gt;" style="whiteSpace=wrap;html=1;" parent="1" vertex="1">
          <mxGeometry x="80" y="-10" width="120" height="60" as="geometry" />
        </mxCell>
        <mxCell id="RxotbF4VRwW70MIJQykr-23" value="" style="edgeStyle=orthogonalEdgeStyle;rounded=0;orthogonalLoop=1;jettySize=auto;html=1;" parent="1" source="RxotbF4VRwW70MIJQykr-20" target="RxotbF4VRwW70MIJQykr-22" edge="1">
          <mxGeometry relative="1" as="geometry">
            <Array as="points">
              <mxPoint x="740" y="70" />
              <mxPoint x="580" y="70" />
              <mxPoint x="580" y="120" />
            </Array>
          </mxGeometry>
        </mxCell>
        <mxCell id="RxotbF4VRwW70MIJQykr-20" value="Introduction&amp;nbsp;&lt;div&gt;Video&lt;/div&gt;&lt;div&gt;Page&lt;/div&gt;" style="whiteSpace=wrap;html=1;" parent="1" vertex="1">
          <mxGeometry x="680" width="120" height="60" as="geometry" />
        </mxCell>
        <mxCell id="RxotbF4VRwW70MIJQykr-22" value="Back" style="whiteSpace=wrap;html=1;" parent="1" vertex="1">
          <mxGeometry x="480" y="100" width="80" height="40" as="geometry" />
        </mxCell>
        <mxCell id="RxotbF4VRwW70MIJQykr-28" style="edgeStyle=orthogonalEdgeStyle;rounded=0;orthogonalLoop=1;jettySize=auto;html=1;exitX=1;exitY=1;exitDx=0;exitDy=0;entryX=0;entryY=0;entryDx=0;entryDy=0;" parent="1" source="RxotbF4VRwW70MIJQykr-24" target="RxotbF4VRwW70MIJQykr-2" edge="1">
          <mxGeometry relative="1" as="geometry" />
        </mxCell>
        <mxCell id="RxotbF4VRwW70MIJQykr-24" value="Back" style="whiteSpace=wrap;html=1;" parent="1" vertex="1">
          <mxGeometry x="240" y="110" width="80" height="40" as="geometry" />
        </mxCell>
        <mxCell id="RxotbF4VRwW70MIJQykr-27" style="edgeStyle=orthogonalEdgeStyle;rounded=0;orthogonalLoop=1;jettySize=auto;html=1;exitX=0;exitY=1;exitDx=0;exitDy=0;entryX=0.917;entryY=0.033;entryDx=0;entryDy=0;entryPerimeter=0;" parent="1" source="RxotbF4VRwW70MIJQykr-22" target="RxotbF4VRwW70MIJQykr-2" edge="1">
          <mxGeometry relative="1" as="geometry" />
        </mxCell>
        <mxCell id="RxotbF4VRwW70MIJQykr-32" value="" style="edgeStyle=orthogonalEdgeStyle;rounded=0;orthogonalLoop=1;jettySize=auto;html=1;" parent="1" source="RxotbF4VRwW70MIJQykr-29" target="RxotbF4VRwW70MIJQykr-31" edge="1">
          <mxGeometry relative="1" as="geometry" />
        </mxCell>
        <mxCell id="RxotbF4VRwW70MIJQykr-37" value="Yes" style="edgeLabel;html=1;align=center;verticalAlign=middle;resizable=0;points=[];" parent="RxotbF4VRwW70MIJQykr-32" vertex="1" connectable="0">
          <mxGeometry x="-0.05" y="-1" relative="1" as="geometry">
            <mxPoint as="offset" />
          </mxGeometry>
        </mxCell>
        <mxCell id="RxotbF4VRwW70MIJQykr-34" value="" style="edgeStyle=orthogonalEdgeStyle;rounded=0;orthogonalLoop=1;jettySize=auto;html=1;" parent="1" source="RxotbF4VRwW70MIJQykr-29" target="RxotbF4VRwW70MIJQykr-33" edge="1">
          <mxGeometry relative="1" as="geometry" />
        </mxCell>
        <mxCell id="RxotbF4VRwW70MIJQykr-38" value="No" style="edgeLabel;html=1;align=center;verticalAlign=middle;resizable=0;points=[];" parent="RxotbF4VRwW70MIJQykr-34" vertex="1" connectable="0">
          <mxGeometry x="-0.5719" y="2" relative="1" as="geometry">
            <mxPoint as="offset" />
          </mxGeometry>
        </mxCell>
        <mxCell id="RxotbF4VRwW70MIJQykr-29" value="Are you an&amp;nbsp;&lt;div&gt;Admin?&lt;/div&gt;" style="rhombus;whiteSpace=wrap;html=1;" parent="1" vertex="1">
          <mxGeometry x="280" y="412.5" width="80" height="80" as="geometry" />
        </mxCell>
        <mxCell id="RxotbF4VRwW70MIJQykr-42" value="" style="edgeStyle=orthogonalEdgeStyle;rounded=0;orthogonalLoop=1;jettySize=auto;html=1;" parent="1" source="RxotbF4VRwW70MIJQykr-31" target="RxotbF4VRwW70MIJQykr-41" edge="1">
          <mxGeometry relative="1" as="geometry" />
        </mxCell>
        <mxCell id="RxotbF4VRwW70MIJQykr-48" style="edgeStyle=orthogonalEdgeStyle;rounded=0;orthogonalLoop=1;jettySize=auto;html=1;exitX=0.75;exitY=1;exitDx=0;exitDy=0;entryX=0;entryY=0.5;entryDx=0;entryDy=0;" parent="1" source="RxotbF4VRwW70MIJQykr-31" target="RxotbF4VRwW70MIJQykr-43" edge="1">
          <mxGeometry relative="1" as="geometry" />
        </mxCell>
        <mxCell id="RxotbF4VRwW70MIJQykr-49" style="edgeStyle=orthogonalEdgeStyle;rounded=0;orthogonalLoop=1;jettySize=auto;html=1;exitX=0.5;exitY=1;exitDx=0;exitDy=0;entryX=0;entryY=0.5;entryDx=0;entryDy=0;" parent="1" source="RxotbF4VRwW70MIJQykr-31" target="RxotbF4VRwW70MIJQykr-44" edge="1">
          <mxGeometry relative="1" as="geometry" />
        </mxCell>
        <mxCell id="RxotbF4VRwW70MIJQykr-52" style="edgeStyle=orthogonalEdgeStyle;rounded=0;orthogonalLoop=1;jettySize=auto;html=1;exitX=0;exitY=1;exitDx=0;exitDy=0;entryX=1;entryY=0.5;entryDx=0;entryDy=0;" parent="1" source="RxotbF4VRwW70MIJQykr-31" target="RxotbF4VRwW70MIJQykr-46" edge="1">
          <mxGeometry relative="1" as="geometry" />
        </mxCell>
        <mxCell id="RxotbF4VRwW70MIJQykr-53" style="edgeStyle=orthogonalEdgeStyle;rounded=0;orthogonalLoop=1;jettySize=auto;html=1;exitX=0;exitY=0.75;exitDx=0;exitDy=0;entryX=1;entryY=0.5;entryDx=0;entryDy=0;" parent="1" source="RxotbF4VRwW70MIJQykr-31" target="RxotbF4VRwW70MIJQykr-45" edge="1">
          <mxGeometry relative="1" as="geometry" />
        </mxCell>
        <mxCell id="RxotbF4VRwW70MIJQykr-56" style="edgeStyle=orthogonalEdgeStyle;rounded=0;orthogonalLoop=1;jettySize=auto;html=1;exitX=0.25;exitY=0;exitDx=0;exitDy=0;entryX=0.5;entryY=1;entryDx=0;entryDy=0;" parent="1" source="RxotbF4VRwW70MIJQykr-31" target="RxotbF4VRwW70MIJQykr-55" edge="1">
          <mxGeometry relative="1" as="geometry" />
        </mxCell>
        <mxCell id="RxotbF4VRwW70MIJQykr-57" value="&lt;div&gt;&lt;br&gt;&lt;/div&gt;&lt;div&gt;&lt;br&gt;&lt;/div&gt;" style="edgeLabel;html=1;align=center;verticalAlign=middle;resizable=0;points=[];" parent="RxotbF4VRwW70MIJQykr-56" vertex="1" connectable="0">
          <mxGeometry x="0.0231" y="-2" relative="1" as="geometry">
            <mxPoint x="1" as="offset" />
          </mxGeometry>
        </mxCell>
        <mxCell id="RxotbF4VRwW70MIJQykr-31" value="Admin Page" style="whiteSpace=wrap;html=1;" parent="1" vertex="1">
          <mxGeometry y="425" width="100" height="55" as="geometry" />
        </mxCell>
        <mxCell id="RxotbF4VRwW70MIJQykr-70" style="edgeStyle=orthogonalEdgeStyle;rounded=0;orthogonalLoop=1;jettySize=auto;html=1;exitX=0.25;exitY=1;exitDx=0;exitDy=0;entryX=0.5;entryY=0;entryDx=0;entryDy=0;" parent="1" source="RxotbF4VRwW70MIJQykr-33" target="RxotbF4VRwW70MIJQykr-65" edge="1">
          <mxGeometry relative="1" as="geometry" />
        </mxCell>
        <mxCell id="RxotbF4VRwW70MIJQykr-71" style="edgeStyle=orthogonalEdgeStyle;rounded=0;orthogonalLoop=1;jettySize=auto;html=1;exitX=0.75;exitY=1;exitDx=0;exitDy=0;entryX=0.25;entryY=0;entryDx=0;entryDy=0;" parent="1" source="RxotbF4VRwW70MIJQykr-33" target="RxotbF4VRwW70MIJQykr-66" edge="1">
          <mxGeometry relative="1" as="geometry">
            <Array as="points">
              <mxPoint x="570" y="550" />
              <mxPoint x="570" y="710" />
              <mxPoint x="680" y="710" />
            </Array>
          </mxGeometry>
        </mxCell>
        <mxCell id="RxotbF4VRwW70MIJQykr-72" style="edgeStyle=orthogonalEdgeStyle;rounded=0;orthogonalLoop=1;jettySize=auto;html=1;exitX=1;exitY=0.5;exitDx=0;exitDy=0;entryX=0;entryY=0.5;entryDx=0;entryDy=0;" parent="1" source="RxotbF4VRwW70MIJQykr-33" target="RxotbF4VRwW70MIJQykr-67" edge="1">
          <mxGeometry relative="1" as="geometry" />
        </mxCell>
        <mxCell id="RxotbF4VRwW70MIJQykr-33" value="Home&lt;div&gt;Page&lt;/div&gt;" style="whiteSpace=wrap;html=1;" parent="1" vertex="1">
          <mxGeometry x="480" y="490" width="140" height="60" as="geometry" />
        </mxCell>
        <mxCell id="TgoKjytJ8Vac0LaPC_0v-29" style="edgeStyle=orthogonalEdgeStyle;rounded=0;orthogonalLoop=1;jettySize=auto;html=1;exitX=1;exitY=0.5;exitDx=0;exitDy=0;entryX=0;entryY=0.5;entryDx=0;entryDy=0;" edge="1" parent="1" source="RxotbF4VRwW70MIJQykr-35" target="TgoKjytJ8Vac0LaPC_0v-28">
          <mxGeometry relative="1" as="geometry" />
        </mxCell>
        <mxCell id="RxotbF4VRwW70MIJQykr-35" value="Comapy Details&lt;div&gt;Sub-Page&lt;/div&gt;" style="whiteSpace=wrap;html=1;rounded=0;" parent="1" vertex="1">
          <mxGeometry x="350" y="330" width="120" height="60" as="geometry" />
        </mxCell>
        <mxCell id="RxotbF4VRwW70MIJQykr-41" value="Summary&lt;div&gt;Sub-Page&lt;/div&gt;" style="whiteSpace=wrap;html=1;" parent="1" vertex="1">
          <mxGeometry x="-230" y="422.5" width="120" height="60" as="geometry" />
        </mxCell>
        <mxCell id="RxotbF4VRwW70MIJQykr-43" value="Items&lt;div&gt;Sub-Page&lt;/div&gt;" style="whiteSpace=wrap;html=1;" parent="1" vertex="1">
          <mxGeometry x="110" y="510" width="120" height="60" as="geometry" />
        </mxCell>
        <mxCell id="RxotbF4VRwW70MIJQykr-44" value="Planes&lt;div&gt;Sub-Page&lt;/div&gt;" style="whiteSpace=wrap;html=1;" parent="1" vertex="1">
          <mxGeometry x="70" y="620" width="120" height="60" as="geometry" />
        </mxCell>
        <mxCell id="RxotbF4VRwW70MIJQykr-45" value="Emails&lt;div&gt;Sub-Page&lt;/div&gt;" style="whiteSpace=wrap;html=1;" parent="1" vertex="1">
          <mxGeometry x="-230" y="530" width="120" height="60" as="geometry" />
        </mxCell>
        <mxCell id="RxotbF4VRwW70MIJQykr-46" value="Companies&lt;div&gt;Sub-Page&lt;/div&gt;" style="whiteSpace=wrap;html=1;" parent="1" vertex="1">
          <mxGeometry x="-160" y="630" width="120" height="60" as="geometry" />
        </mxCell>
        <mxCell id="XwJw89A8hsT24YQSYN0T-3" style="edgeStyle=orthogonalEdgeStyle;rounded=0;orthogonalLoop=1;jettySize=auto;html=1;exitX=0.25;exitY=1;exitDx=0;exitDy=0;entryX=0.5;entryY=0;entryDx=0;entryDy=0;" parent="1" source="RxotbF4VRwW70MIJQykr-47" target="XwJw89A8hsT24YQSYN0T-1" edge="1">
          <mxGeometry relative="1" as="geometry" />
        </mxCell>
        <mxCell id="XwJw89A8hsT24YQSYN0T-4" style="edgeStyle=orthogonalEdgeStyle;rounded=0;orthogonalLoop=1;jettySize=auto;html=1;exitX=0.75;exitY=1;exitDx=0;exitDy=0;" parent="1" source="RxotbF4VRwW70MIJQykr-47" target="XwJw89A8hsT24YQSYN0T-2" edge="1">
          <mxGeometry relative="1" as="geometry" />
        </mxCell>
        <mxCell id="RxotbF4VRwW70MIJQykr-47" value="Orders&lt;div&gt;Sub-Page&lt;/div&gt;" style="whiteSpace=wrap;html=1;" parent="1" vertex="1">
          <mxGeometry x="-60" y="720" width="120" height="60" as="geometry" />
        </mxCell>
        <mxCell id="RxotbF4VRwW70MIJQykr-54" style="edgeStyle=orthogonalEdgeStyle;rounded=0;orthogonalLoop=1;jettySize=auto;html=1;exitX=0.25;exitY=1;exitDx=0;exitDy=0;entryX=0.692;entryY=-0.05;entryDx=0;entryDy=0;entryPerimeter=0;" parent="1" source="RxotbF4VRwW70MIJQykr-31" target="RxotbF4VRwW70MIJQykr-47" edge="1">
          <mxGeometry relative="1" as="geometry" />
        </mxCell>
        <mxCell id="RxotbF4VRwW70MIJQykr-59" style="edgeStyle=orthogonalEdgeStyle;rounded=0;orthogonalLoop=1;jettySize=auto;html=1;exitX=0;exitY=0.5;exitDx=0;exitDy=0;" parent="1" source="RxotbF4VRwW70MIJQykr-55" edge="1">
          <mxGeometry relative="1" as="geometry">
            <mxPoint x="-170" y="325" as="targetPoint" />
          </mxGeometry>
        </mxCell>
        <mxCell id="RxotbF4VRwW70MIJQykr-60" value="Yes" style="edgeLabel;html=1;align=center;verticalAlign=middle;resizable=0;points=[];" parent="RxotbF4VRwW70MIJQykr-59" vertex="1" connectable="0">
          <mxGeometry x="-0.0639" y="-2" relative="1" as="geometry">
            <mxPoint as="offset" />
          </mxGeometry>
        </mxCell>
        <mxCell id="RxotbF4VRwW70MIJQykr-55" value="Is Developer Admin?" style="rhombus;whiteSpace=wrap;html=1;" parent="1" vertex="1">
          <mxGeometry x="-100" y="280" width="100" height="90" as="geometry" />
        </mxCell>
        <mxCell id="RxotbF4VRwW70MIJQykr-61" value="Custom Page&lt;div&gt;Sub-Page&lt;/div&gt;" style="rounded=0;whiteSpace=wrap;html=1;" parent="1" vertex="1">
          <mxGeometry x="-290" y="290" width="120" height="60" as="geometry" />
        </mxCell>
        <mxCell id="RxotbF4VRwW70MIJQykr-64" value="Manage&amp;nbsp;&lt;div&gt;Company&amp;nbsp;&lt;/div&gt;&lt;div&gt;Info Sub-Page&lt;/div&gt;" style="rounded=0;whiteSpace=wrap;html=1;" parent="1" vertex="1">
          <mxGeometry x="270" y="670" width="120" height="60" as="geometry" />
        </mxCell>
        <mxCell id="TgoKjytJ8Vac0LaPC_0v-15" style="edgeStyle=orthogonalEdgeStyle;rounded=0;orthogonalLoop=1;jettySize=auto;html=1;exitX=0.5;exitY=1;exitDx=0;exitDy=0;entryX=0.5;entryY=1;entryDx=0;entryDy=0;" edge="1" parent="1" source="RxotbF4VRwW70MIJQykr-65" target="TgoKjytJ8Vac0LaPC_0v-9">
          <mxGeometry relative="1" as="geometry" />
        </mxCell>
        <mxCell id="RxotbF4VRwW70MIJQykr-65" value="Manage&amp;nbsp;&lt;div&gt;Payments&lt;/div&gt;&lt;div&gt;Sub-Page&lt;/div&gt;" style="rounded=0;whiteSpace=wrap;html=1;" parent="1" vertex="1">
          <mxGeometry x="425" y="770" width="120" height="60" as="geometry" />
        </mxCell>
        <mxCell id="TgoKjytJ8Vac0LaPC_0v-12" style="edgeStyle=orthogonalEdgeStyle;rounded=0;orthogonalLoop=1;jettySize=auto;html=1;entryX=0.5;entryY=1;entryDx=0;entryDy=0;" edge="1" parent="1" source="RxotbF4VRwW70MIJQykr-66" target="TgoKjytJ8Vac0LaPC_0v-7">
          <mxGeometry relative="1" as="geometry" />
        </mxCell>
        <mxCell id="RxotbF4VRwW70MIJQykr-66" value="View Logs&lt;div&gt;Sub Page&lt;/div&gt;" style="rounded=0;whiteSpace=wrap;html=1;" parent="1" vertex="1">
          <mxGeometry x="650" y="870" width="120" height="60" as="geometry" />
        </mxCell>
        <mxCell id="RxotbF4VRwW70MIJQykr-67" value="Place an order&lt;div&gt;Sub-Page&lt;/div&gt;" style="rounded=0;whiteSpace=wrap;html=1;" parent="1" vertex="1">
          <mxGeometry x="690" y="520" width="120" height="60" as="geometry" />
        </mxCell>
        <mxCell id="RxotbF4VRwW70MIJQykr-69" style="edgeStyle=orthogonalEdgeStyle;rounded=0;orthogonalLoop=1;jettySize=auto;html=1;exitX=0;exitY=1;exitDx=0;exitDy=0;" parent="1" source="RxotbF4VRwW70MIJQykr-33" edge="1">
          <mxGeometry relative="1" as="geometry">
            <mxPoint x="350" y="667" as="targetPoint" />
          </mxGeometry>
        </mxCell>
        <mxCell id="TgoKjytJ8Vac0LaPC_0v-44" style="edgeStyle=orthogonalEdgeStyle;rounded=0;orthogonalLoop=1;jettySize=auto;html=1;exitX=1;exitY=1;exitDx=0;exitDy=0;entryX=1;entryY=0.5;entryDx=0;entryDy=0;" edge="1" parent="1" source="RxotbF4VRwW70MIJQykr-73" target="TgoKjytJ8Vac0LaPC_0v-43">
          <mxGeometry relative="1" as="geometry">
            <Array as="points">
              <mxPoint x="690" y="420" />
            </Array>
          </mxGeometry>
        </mxCell>
        <mxCell id="RxotbF4VRwW70MIJQykr-73" value="Contact&lt;div&gt;&amp;nbsp;Information&lt;/div&gt;&lt;div&gt;Sub-Page&lt;/div&gt;" style="whiteSpace=wrap;html=1;rounded=0;" parent="1" vertex="1">
          <mxGeometry x="570" y="320" width="120" height="60" as="geometry" />
        </mxCell>
        <mxCell id="TgoKjytJ8Vac0LaPC_0v-41" style="edgeStyle=orthogonalEdgeStyle;rounded=0;orthogonalLoop=1;jettySize=auto;html=1;exitX=1;exitY=0.75;exitDx=0;exitDy=0;entryX=0.5;entryY=0;entryDx=0;entryDy=0;" edge="1" parent="1" source="RxotbF4VRwW70MIJQykr-75" target="TgoKjytJ8Vac0LaPC_0v-39">
          <mxGeometry relative="1" as="geometry">
            <Array as="points">
              <mxPoint x="965" y="375" />
            </Array>
          </mxGeometry>
        </mxCell>
        <mxCell id="TgoKjytJ8Vac0LaPC_0v-49" style="edgeStyle=orthogonalEdgeStyle;rounded=0;orthogonalLoop=1;jettySize=auto;html=1;exitX=0.5;exitY=0;exitDx=0;exitDy=0;entryX=1;entryY=0.5;entryDx=0;entryDy=0;" edge="1" parent="1" source="RxotbF4VRwW70MIJQykr-75" target="TgoKjytJ8Vac0LaPC_0v-48">
          <mxGeometry relative="1" as="geometry" />
        </mxCell>
        <mxCell id="RxotbF4VRwW70MIJQykr-75" value="Last Info&lt;div&gt;Sub-Page&lt;/div&gt;" style="whiteSpace=wrap;html=1;rounded=0;" parent="1" vertex="1">
          <mxGeometry x="780" y="330" width="120" height="60" as="geometry" />
        </mxCell>
        <mxCell id="RxotbF4VRwW70MIJQykr-77" value="Confirmation&lt;div&gt;Sub-page&lt;/div&gt;" style="whiteSpace=wrap;html=1;rounded=0;" parent="1" vertex="1">
          <mxGeometry x="780" y="420" width="120" height="60" as="geometry" />
        </mxCell>
        <mxCell id="RxotbF4VRwW70MIJQykr-80" style="edgeStyle=orthogonalEdgeStyle;rounded=0;orthogonalLoop=1;jettySize=auto;html=1;exitX=0;exitY=0.5;exitDx=0;exitDy=0;" parent="1" source="RxotbF4VRwW70MIJQykr-77" edge="1">
          <mxGeometry relative="1" as="geometry">
            <mxPoint x="543" y="490" as="targetPoint" />
          </mxGeometry>
        </mxCell>
        <mxCell id="RxotbF4VRwW70MIJQykr-89" value="End" style="ellipse;whiteSpace=wrap;html=1;" parent="1" vertex="1">
          <mxGeometry x="305" y="950" width="120" height="80" as="geometry" />
        </mxCell>
        <mxCell id="RxotbF4VRwW70MIJQykr-90" value="" style="endArrow=classic;html=1;rounded=0;exitX=0.5;exitY=0;exitDx=0;exitDy=0;entryX=0;entryY=0.5;entryDx=0;entryDy=0;" parent="1" source="RxotbF4VRwW70MIJQykr-31" target="RxotbF4VRwW70MIJQykr-89" edge="1">
          <mxGeometry width="50" height="50" relative="1" as="geometry">
            <mxPoint x="50" y="420" as="sourcePoint" />
            <mxPoint x="100" y="370" as="targetPoint" />
            <Array as="points">
              <mxPoint x="50" y="200" />
              <mxPoint x="-310" y="200" />
              <mxPoint x="-310" y="990" />
            </Array>
          </mxGeometry>
        </mxCell>
        <mxCell id="RxotbF4VRwW70MIJQykr-93" value="" style="endArrow=classic;html=1;rounded=0;entryX=0.054;entryY=0.773;entryDx=0;entryDy=0;entryPerimeter=0;" parent="1" target="RxotbF4VRwW70MIJQykr-89" edge="1">
          <mxGeometry width="50" height="50" relative="1" as="geometry">
            <mxPoint x="160" y="360" as="sourcePoint" />
            <mxPoint x="210" y="310" as="targetPoint" />
            <Array as="points">
              <mxPoint x="70" y="360" />
              <mxPoint x="70" y="140" />
              <mxPoint x="-350" y="140" />
              <mxPoint x="-350" y="1010" />
            </Array>
          </mxGeometry>
        </mxCell>
        <mxCell id="RxotbF4VRwW70MIJQykr-94" value="" style="endArrow=classic;html=1;rounded=0;exitX=0;exitY=0.5;exitDx=0;exitDy=0;" parent="1" edge="1" source="RxotbF4VRwW70MIJQykr-18">
          <mxGeometry width="50" height="50" relative="1" as="geometry">
            <mxPoint x="150" y="110" as="sourcePoint" />
            <mxPoint x="370" y="1030" as="targetPoint" />
            <Array as="points">
              <mxPoint x="-420" y="20" />
              <mxPoint x="-420" y="1040" />
              <mxPoint x="370" y="1040" />
            </Array>
          </mxGeometry>
        </mxCell>
        <mxCell id="RxotbF4VRwW70MIJQykr-95" value="" style="endArrow=classic;html=1;rounded=0;exitX=1;exitY=0.5;exitDx=0;exitDy=0;" parent="1" edge="1" source="RxotbF4VRwW70MIJQykr-20">
          <mxGeometry width="50" height="50" relative="1" as="geometry">
            <mxPoint x="650" y="110" as="sourcePoint" />
            <mxPoint x="380" y="1031" as="targetPoint" />
            <Array as="points">
              <mxPoint x="1170" y="30" />
              <mxPoint x="1170" y="1100" />
              <mxPoint x="380" y="1100" />
            </Array>
          </mxGeometry>
        </mxCell>
        <mxCell id="RxotbF4VRwW70MIJQykr-97" value="" style="endArrow=classic;html=1;rounded=0;" parent="1" target="RxotbF4VRwW70MIJQykr-89" edge="1">
          <mxGeometry width="50" height="50" relative="1" as="geometry">
            <mxPoint x="450" y="830" as="sourcePoint" />
            <mxPoint x="500" y="660" as="targetPoint" />
            <Array as="points">
              <mxPoint x="450" y="910" />
              <mxPoint x="370" y="910" />
            </Array>
          </mxGeometry>
        </mxCell>
        <mxCell id="RxotbF4VRwW70MIJQykr-99" value="" style="endArrow=classic;html=1;rounded=0;entryX=0.935;entryY=0.238;entryDx=0;entryDy=0;entryPerimeter=0;exitX=0;exitY=0.5;exitDx=0;exitDy=0;" parent="1" target="RxotbF4VRwW70MIJQykr-89" edge="1" source="RxotbF4VRwW70MIJQykr-66">
          <mxGeometry width="50" height="50" relative="1" as="geometry">
            <mxPoint x="620" y="710" as="sourcePoint" />
            <mxPoint x="410" y="950" as="targetPoint" />
            <Array as="points">
              <mxPoint x="590" y="900" />
              <mxPoint x="590" y="970" />
            </Array>
          </mxGeometry>
        </mxCell>
        <mxCell id="RxotbF4VRwW70MIJQykr-100" value="" style="endArrow=classic;html=1;rounded=0;entryX=1;entryY=0.5;entryDx=0;entryDy=0;" parent="1" target="RxotbF4VRwW70MIJQykr-89" edge="1">
          <mxGeometry width="50" height="50" relative="1" as="geometry">
            <mxPoint x="810" y="570" as="sourcePoint" />
            <mxPoint x="860" y="520" as="targetPoint" />
            <Array as="points">
              <mxPoint x="810" y="990" />
              <mxPoint x="610" y="990" />
            </Array>
          </mxGeometry>
        </mxCell>
        <mxCell id="RxotbF4VRwW70MIJQykr-101" value="" style="endArrow=classic;html=1;rounded=0;entryX=0.935;entryY=0.72;entryDx=0;entryDy=0;entryPerimeter=0;exitX=1;exitY=0.25;exitDx=0;exitDy=0;" parent="1" target="RxotbF4VRwW70MIJQykr-89" edge="1" source="RxotbF4VRwW70MIJQykr-11">
          <mxGeometry width="50" height="50" relative="1" as="geometry">
            <mxPoint x="560" y="320" as="sourcePoint" />
            <mxPoint x="610" y="270" as="targetPoint" />
            <Array as="points">
              <mxPoint x="1020" y="245" />
              <mxPoint x="1020" y="1010" />
            </Array>
          </mxGeometry>
        </mxCell>
        <mxCell id="RxotbF4VRwW70MIJQykr-102" value="" style="endArrow=classic;html=1;rounded=0;entryX=0.748;entryY=0.895;entryDx=0;entryDy=0;entryPerimeter=0;exitX=1;exitY=0.25;exitDx=0;exitDy=0;" parent="1" target="RxotbF4VRwW70MIJQykr-89" edge="1" source="RxotbF4VRwW70MIJQykr-2">
          <mxGeometry width="50" height="50" relative="1" as="geometry">
            <mxPoint x="470" y="230" as="sourcePoint" />
            <mxPoint x="520" y="180" as="targetPoint" />
            <Array as="points">
              <mxPoint x="1100" y="185" />
              <mxPoint x="1110" y="1080" />
              <mxPoint x="395" y="1080" />
            </Array>
          </mxGeometry>
        </mxCell>
        <mxCell id="XwJw89A8hsT24YQSYN0T-1" value="Update an Order&lt;div&gt;Sub-Sub-Page&lt;/div&gt;" style="rounded=0;whiteSpace=wrap;html=1;" parent="1" vertex="1">
          <mxGeometry x="-170" y="820" width="120" height="60" as="geometry" />
        </mxCell>
        <mxCell id="XwJw89A8hsT24YQSYN0T-2" value="Order Output&lt;div&gt;Sub-Sub-Page&lt;/div&gt;" style="rounded=0;whiteSpace=wrap;html=1;" parent="1" vertex="1">
          <mxGeometry x="40" y="820" width="120" height="60" as="geometry" />
        </mxCell>
        <mxCell id="XwJw89A8hsT24YQSYN0T-5" value="" style="endArrow=classic;startArrow=classic;html=1;rounded=0;entryX=0;entryY=0.5;entryDx=0;entryDy=0;" parent="1" target="XwJw89A8hsT24YQSYN0T-2" edge="1">
          <mxGeometry width="50" height="50" relative="1" as="geometry">
            <mxPoint x="-50" y="850" as="sourcePoint" />
            <mxPoint y="800" as="targetPoint" />
          </mxGeometry>
        </mxCell>
        <mxCell id="TgoKjytJ8Vac0LaPC_0v-2" style="edgeStyle=orthogonalEdgeStyle;rounded=0;orthogonalLoop=1;jettySize=auto;html=1;entryX=0.078;entryY=0.958;entryDx=0;entryDy=0;entryPerimeter=0;" edge="1" parent="1" source="RxotbF4VRwW70MIJQykr-13" target="RxotbF4VRwW70MIJQykr-2">
          <mxGeometry relative="1" as="geometry" />
        </mxCell>
        <mxCell id="TgoKjytJ8Vac0LaPC_0v-4" style="edgeStyle=orthogonalEdgeStyle;rounded=0;orthogonalLoop=1;jettySize=auto;html=1;entryX=0.228;entryY=0.071;entryDx=0;entryDy=0;entryPerimeter=0;" edge="1" parent="1" source="RxotbF4VRwW70MIJQykr-64" target="RxotbF4VRwW70MIJQykr-89">
          <mxGeometry relative="1" as="geometry" />
        </mxCell>
        <mxCell id="TgoKjytJ8Vac0LaPC_0v-6" value="Home" style="rounded=0;whiteSpace=wrap;html=1;" vertex="1" parent="1">
          <mxGeometry x="690" y="610" width="90" height="50" as="geometry" />
        </mxCell>
        <mxCell id="TgoKjytJ8Vac0LaPC_0v-7" value="Home" style="rounded=0;whiteSpace=wrap;html=1;" vertex="1" parent="1">
          <mxGeometry x="710" y="750" width="90" height="50" as="geometry" />
        </mxCell>
        <mxCell id="TgoKjytJ8Vac0LaPC_0v-19" style="edgeStyle=orthogonalEdgeStyle;rounded=0;orthogonalLoop=1;jettySize=auto;html=1;entryX=0;entryY=0.75;entryDx=0;entryDy=0;" edge="1" parent="1" source="TgoKjytJ8Vac0LaPC_0v-8" target="RxotbF4VRwW70MIJQykr-33">
          <mxGeometry relative="1" as="geometry" />
        </mxCell>
        <mxCell id="TgoKjytJ8Vac0LaPC_0v-8" value="Home" style="rounded=0;whiteSpace=wrap;html=1;" vertex="1" parent="1">
          <mxGeometry x="290" y="540" width="90" height="40" as="geometry" />
        </mxCell>
        <mxCell id="TgoKjytJ8Vac0LaPC_0v-17" style="edgeStyle=orthogonalEdgeStyle;rounded=0;orthogonalLoop=1;jettySize=auto;html=1;entryX=0.5;entryY=1;entryDx=0;entryDy=0;" edge="1" parent="1" source="TgoKjytJ8Vac0LaPC_0v-9" target="RxotbF4VRwW70MIJQykr-33">
          <mxGeometry relative="1" as="geometry">
            <Array as="points">
              <mxPoint x="615" y="740" />
              <mxPoint x="550" y="740" />
            </Array>
          </mxGeometry>
        </mxCell>
        <mxCell id="TgoKjytJ8Vac0LaPC_0v-9" value="Home" style="rounded=0;whiteSpace=wrap;html=1;" vertex="1" parent="1">
          <mxGeometry x="570" y="760" width="90" height="40" as="geometry" />
        </mxCell>
        <mxCell id="TgoKjytJ8Vac0LaPC_0v-10" style="edgeStyle=orthogonalEdgeStyle;rounded=0;orthogonalLoop=1;jettySize=auto;html=1;exitX=0.5;exitY=1;exitDx=0;exitDy=0;entryX=0.641;entryY=0.067;entryDx=0;entryDy=0;entryPerimeter=0;" edge="1" parent="1" source="RxotbF4VRwW70MIJQykr-67" target="TgoKjytJ8Vac0LaPC_0v-6">
          <mxGeometry relative="1" as="geometry" />
        </mxCell>
        <mxCell id="TgoKjytJ8Vac0LaPC_0v-11" style="edgeStyle=orthogonalEdgeStyle;rounded=0;orthogonalLoop=1;jettySize=auto;html=1;entryX=0.929;entryY=1;entryDx=0;entryDy=0;entryPerimeter=0;" edge="1" parent="1" source="TgoKjytJ8Vac0LaPC_0v-6" target="RxotbF4VRwW70MIJQykr-33">
          <mxGeometry relative="1" as="geometry" />
        </mxCell>
        <mxCell id="TgoKjytJ8Vac0LaPC_0v-14" value="" style="endArrow=classic;html=1;rounded=0;entryX=0.819;entryY=0.997;entryDx=0;entryDy=0;entryPerimeter=0;" edge="1" parent="1" target="RxotbF4VRwW70MIJQykr-33">
          <mxGeometry width="50" height="50" relative="1" as="geometry">
            <mxPoint x="760" y="750" as="sourcePoint" />
            <mxPoint x="810" y="700" as="targetPoint" />
            <Array as="points">
              <mxPoint x="760" y="700" />
              <mxPoint x="595" y="700" />
            </Array>
          </mxGeometry>
        </mxCell>
        <mxCell id="TgoKjytJ8Vac0LaPC_0v-18" style="edgeStyle=orthogonalEdgeStyle;rounded=0;orthogonalLoop=1;jettySize=auto;html=1;entryX=0.418;entryY=1.04;entryDx=0;entryDy=0;entryPerimeter=0;" edge="1" parent="1" source="RxotbF4VRwW70MIJQykr-64" target="TgoKjytJ8Vac0LaPC_0v-8">
          <mxGeometry relative="1" as="geometry" />
        </mxCell>
        <mxCell id="TgoKjytJ8Vac0LaPC_0v-20" value="" style="endArrow=classic;html=1;rounded=0;entryX=0.973;entryY=0.615;entryDx=0;entryDy=0;entryPerimeter=0;" edge="1" parent="1" target="RxotbF4VRwW70MIJQykr-89">
          <mxGeometry width="50" height="50" relative="1" as="geometry">
            <mxPoint x="620" y="490" as="sourcePoint" />
            <mxPoint x="890" y="990" as="targetPoint" />
            <Array as="points">
              <mxPoint x="880" y="490" />
              <mxPoint x="880" y="999" />
            </Array>
          </mxGeometry>
        </mxCell>
        <mxCell id="TgoKjytJ8Vac0LaPC_0v-21" value="Restart&amp;nbsp;&lt;div&gt;Registration&lt;/div&gt;&lt;div&gt;Back&lt;/div&gt;" style="rounded=0;whiteSpace=wrap;html=1;" vertex="1" parent="1">
          <mxGeometry x="900" y="255" width="90" height="50" as="geometry" />
        </mxCell>
        <mxCell id="TgoKjytJ8Vac0LaPC_0v-24" value="" style="endArrow=classic;html=1;rounded=0;entryX=1;entryY=0.5;entryDx=0;entryDy=0;" edge="1" parent="1" target="RxotbF4VRwW70MIJQykr-11">
          <mxGeometry width="50" height="50" relative="1" as="geometry">
            <mxPoint x="900" y="260" as="sourcePoint" />
            <mxPoint x="950" y="250" as="targetPoint" />
          </mxGeometry>
        </mxCell>
        <mxCell id="TgoKjytJ8Vac0LaPC_0v-28" value="Next" style="rounded=0;whiteSpace=wrap;html=1;" vertex="1" parent="1">
          <mxGeometry x="500" y="345" width="60" height="30" as="geometry" />
        </mxCell>
        <mxCell id="TgoKjytJ8Vac0LaPC_0v-32" value="" style="endArrow=classic;html=1;rounded=0;exitX=0.5;exitY=0.167;exitDx=0;exitDy=0;exitPerimeter=0;entryX=0;entryY=0.25;entryDx=0;entryDy=0;" edge="1" parent="1" source="TgoKjytJ8Vac0LaPC_0v-28" target="RxotbF4VRwW70MIJQykr-73">
          <mxGeometry width="50" height="50" relative="1" as="geometry">
            <mxPoint x="530" y="340" as="sourcePoint" />
            <mxPoint x="580" y="290" as="targetPoint" />
            <Array as="points">
              <mxPoint x="530" y="335" />
            </Array>
          </mxGeometry>
        </mxCell>
        <mxCell id="TgoKjytJ8Vac0LaPC_0v-38" style="edgeStyle=orthogonalEdgeStyle;rounded=0;orthogonalLoop=1;jettySize=auto;html=1;exitX=0.75;exitY=1;exitDx=0;exitDy=0;entryX=0;entryY=0.75;entryDx=0;entryDy=0;" edge="1" parent="1" source="TgoKjytJ8Vac0LaPC_0v-35" target="RxotbF4VRwW70MIJQykr-75">
          <mxGeometry relative="1" as="geometry" />
        </mxCell>
        <mxCell id="TgoKjytJ8Vac0LaPC_0v-35" value="Next" style="rounded=0;whiteSpace=wrap;html=1;" vertex="1" parent="1">
          <mxGeometry x="715" y="320" width="50" height="25" as="geometry" />
        </mxCell>
        <mxCell id="TgoKjytJ8Vac0LaPC_0v-36" value="" style="endArrow=classic;html=1;rounded=0;entryX=0.25;entryY=1;entryDx=0;entryDy=0;" edge="1" parent="1" target="TgoKjytJ8Vac0LaPC_0v-35">
          <mxGeometry width="50" height="50" relative="1" as="geometry">
            <mxPoint x="690" y="370" as="sourcePoint" />
            <mxPoint x="740" y="320" as="targetPoint" />
            <Array as="points">
              <mxPoint x="728" y="370" />
            </Array>
          </mxGeometry>
        </mxCell>
        <mxCell id="TgoKjytJ8Vac0LaPC_0v-40" style="edgeStyle=orthogonalEdgeStyle;rounded=0;orthogonalLoop=1;jettySize=auto;html=1;exitX=0.5;exitY=1;exitDx=0;exitDy=0;entryX=1;entryY=0.5;entryDx=0;entryDy=0;" edge="1" parent="1" source="TgoKjytJ8Vac0LaPC_0v-39" target="RxotbF4VRwW70MIJQykr-77">
          <mxGeometry relative="1" as="geometry" />
        </mxCell>
        <mxCell id="TgoKjytJ8Vac0LaPC_0v-39" value="Next" style="rounded=0;whiteSpace=wrap;html=1;" vertex="1" parent="1">
          <mxGeometry x="930" y="390" width="70" height="40" as="geometry" />
        </mxCell>
        <mxCell id="TgoKjytJ8Vac0LaPC_0v-42" value="" style="endArrow=classic;html=1;rounded=0;entryX=1;entryY=0.25;entryDx=0;entryDy=0;" edge="1" parent="1" target="TgoKjytJ8Vac0LaPC_0v-21">
          <mxGeometry width="50" height="50" relative="1" as="geometry">
            <mxPoint x="900" y="480" as="sourcePoint" />
            <mxPoint x="1010" y="270" as="targetPoint" />
            <Array as="points">
              <mxPoint x="1010" y="480" />
              <mxPoint x="1010" y="267" />
            </Array>
          </mxGeometry>
        </mxCell>
        <mxCell id="TgoKjytJ8Vac0LaPC_0v-45" style="edgeStyle=orthogonalEdgeStyle;rounded=0;orthogonalLoop=1;jettySize=auto;html=1;exitX=0;exitY=0.5;exitDx=0;exitDy=0;entryX=0.75;entryY=1;entryDx=0;entryDy=0;" edge="1" parent="1" source="TgoKjytJ8Vac0LaPC_0v-43" target="RxotbF4VRwW70MIJQykr-35">
          <mxGeometry relative="1" as="geometry" />
        </mxCell>
        <mxCell id="TgoKjytJ8Vac0LaPC_0v-43" value="Back" style="rounded=0;whiteSpace=wrap;html=1;" vertex="1" parent="1">
          <mxGeometry x="595" y="400" width="70" height="40" as="geometry" />
        </mxCell>
        <mxCell id="TgoKjytJ8Vac0LaPC_0v-48" value="Back" style="rounded=0;whiteSpace=wrap;html=1;" vertex="1" parent="1">
          <mxGeometry x="730" y="270" width="80" height="40" as="geometry" />
        </mxCell>
        <mxCell id="TgoKjytJ8Vac0LaPC_0v-50" style="edgeStyle=orthogonalEdgeStyle;rounded=0;orthogonalLoop=1;jettySize=auto;html=1;exitX=0;exitY=0.5;exitDx=0;exitDy=0;entryX=0.441;entryY=-0.052;entryDx=0;entryDy=0;entryPerimeter=0;" edge="1" parent="1" source="TgoKjytJ8Vac0LaPC_0v-48" target="RxotbF4VRwW70MIJQykr-73">
          <mxGeometry relative="1" as="geometry" />
        </mxCell>
      </root>
    </mxGraphModel>
  </diagram>
</mxfile>
